<?xml version="1.0" encoding="UTF-8" standalone="no"?>
<svg
   xmlns:dc="http://purl.org/dc/elements/1.1/"
   xmlns:cc="http://creativecommons.org/ns#"
   xmlns:rdf="http://www.w3.org/1999/02/22-rdf-syntax-ns#"
   xmlns:svg="http://www.w3.org/2000/svg"
   xmlns="http://www.w3.org/2000/svg"
   xmlns:sodipodi="http://sodipodi.sourceforge.net/DTD/sodipodi-0.dtd"
   xmlns:inkscape="http://www.inkscape.org/namespaces/inkscape"
   version="1.1"
   x="0px"
   y="0px"
   width="100px"
   height="100px"
   viewBox="0 0 100 100"
   enable-background="new 0 0 100 100"
   xml:space="preserve"
   id="svg3811"
   inkscape:version="0.48.2 r9819"
   sodipodi:docname="meeting_cloud.svg"><metadata
   id="metadata3821"><rdf:RDF><cc:Work
       rdf:about=""><dc:format>image/svg+xml</dc:format><dc:type
         rdf:resource="http://purl.org/dc/dcmitype/StillImage" /></cc:Work></rdf:RDF></metadata><defs
   id="defs3819" /><sodipodi:namedview
   pagecolor="#ffffff"
   bordercolor="#666666"
   borderopacity="1"
   objecttolerance="10"
   gridtolerance="10"
   guidetolerance="10"
   inkscape:pageopacity="0"
   inkscape:pageshadow="2"
   inkscape:window-width="1920"
   inkscape:window-height="1152"
   id="namedview3817"
   showgrid="false"
   inkscape:zoom="2.36"
   inkscape:cx="-25"
   inkscape:cy="50"
   inkscape:window-x="0"
   inkscape:window-y="22"
   inkscape:window-maximized="1"
   inkscape:current-layer="svg3811" />
<g
   id="Captions">
</g>
<g
   id="Your_Icon"
   style="fill:#ecf0f1;fill-opacity:1">
	<path
   d="M84.922,15.539h-2.043c0-3.096-2.51-5.606-5.605-5.606s-5.607,2.51-5.607,5.606h-7.008c0-3.096-2.51-5.606-5.605-5.606   s-5.607,2.51-5.607,5.606h-6.307c0-3.096-2.51-5.606-5.605-5.606c-3.098,0-5.607,2.51-5.607,5.606h-6.307   c0-3.096-2.512-5.606-5.607-5.606s-5.605,2.51-5.605,5.606H16.02c-3.096,0-5.605,2.51-5.605,5.606v63.45   c0,3.096,2.51,5.606,5.605,5.606h68.902c3.096,0,5.607-2.511,5.607-5.606v-63.45C90.529,18.049,88.018,15.539,84.922,15.539z    M79.316,78.989H21.627V43.571h57.689V78.989z"
   id="path3815"
   style="fill:#ecf0f1;fill-opacity:1" />
</g>
</svg>