<svg xmlns="http://www.w3.org/2000/svg" xmlns:xlink="http://www.w3.org/1999/xlink" version="1.1" id="Layer_1" x="0px" y="0px" width="100px" height="100px" viewBox="0 0 100 100" enable-background="new 0 0 100 100" xml:space="preserve">
<path d="M5.468,97.271c0,1.506-1.223,2.733-2.734,2.733l0,0C1.223,100.004,0,98.776,0,97.271V2.162c0-1.51,1.223-2.734,2.734-2.734  l0,0c1.511,0,2.734,1.224,2.734,2.734V97.271z"/>
<rect x="5.468" y="3.925" width="11.717" height="11.716"/>
<rect x="17.156" y="15.612" width="11.714" height="11.717"/>
<rect x="5.468" y="27.297" width="11.717" height="11.717"/>
<rect x="17.156" y="38.986" width="11.714" height="11.716"/>
<rect x="28.87" y="3.925" width="11.714" height="11.716"/>
<rect x="40.563" y="15.612" width="11.709" height="11.717"/>
<rect x="28.87" y="27.297" width="11.714" height="11.717"/>
<rect x="40.563" y="38.986" width="11.709" height="11.716"/>
<rect x="52.272" y="3.925" width="11.721" height="11.716"/>
<rect x="63.966" y="15.612" width="11.713" height="11.717"/>
<rect x="52.272" y="27.297" width="11.721" height="11.717"/>
<rect x="63.966" y="38.986" width="11.713" height="11.716"/>
<path d="M78.327,53.34H1.408V1.529h76.919V53.34z M4.06,50.691h71.619V4.18H4.06V50.691z"/>
</svg>