<?xml version="1.0" encoding="UTF-8" standalone="no"?>
<svg
   xmlns:dc="http://purl.org/dc/elements/1.1/"
   xmlns:cc="http://creativecommons.org/ns#"
   xmlns:rdf="http://www.w3.org/1999/02/22-rdf-syntax-ns#"
   xmlns:svg="http://www.w3.org/2000/svg"
   xmlns="http://www.w3.org/2000/svg"
   xmlns:sodipodi="http://sodipodi.sourceforge.net/DTD/sodipodi-0.dtd"
   xmlns:inkscape="http://www.inkscape.org/namespaces/inkscape"
   width="33.009735"
   height="32.961193"
   id="svg22133"
   version="1.1"
   inkscape:version="0.48.2 r9819"
   sodipodi:docname="preferences_cloud.svg">
  <defs
     id="defs22135" />
  <sodipodi:namedview
     id="base"
     pagecolor="#ffffff"
     bordercolor="#666666"
     borderopacity="1.0"
     inkscape:pageopacity="0.0"
     inkscape:pageshadow="2"
     inkscape:zoom="5.6"
     inkscape:cx="-86.021227"
     inkscape:cy="17.043442"
     inkscape:document-units="px"
     inkscape:current-layer="layer1"
     showgrid="false"
     fit-margin-top="0"
     fit-margin-left="0"
     fit-margin-right="0"
     fit-margin-bottom="0"
     inkscape:window-width="1920"
     inkscape:window-height="1152"
     inkscape:window-x="0"
     inkscape:window-y="22"
     inkscape:window-maximized="1" />
  <metadata
     id="metadata22138">
    <rdf:RDF>
      <cc:Work
         rdf:about="">
        <dc:format>image/svg+xml</dc:format>
        <dc:type
           rdf:resource="http://purl.org/dc/dcmitype/StillImage" />
      </cc:Work>
    </rdf:RDF>
  </metadata>
  <g
     inkscape:label="Calque 1"
     inkscape:groupmode="layer"
     id="layer1"
     transform="translate(-14.928376,146.97876)">
    <path
       style="font-size:medium;font-style:normal;font-variant:normal;font-weight:normal;font-stretch:normal;text-indent:0;text-align:start;text-decoration:none;line-height:normal;letter-spacing:normal;word-spacing:normal;text-transform:none;direction:ltr;block-progression:tb;writing-mode:lr-tb;text-anchor:start;baseline-shift:baseline;color:#000000;fill:#ecf0f1;fill-opacity:1;stroke:none;stroke-width:1.84395897000000009;marker:none;visibility:visible;display:inline;overflow:visible;enable-background:accumulate;font-family:Sans;-inkscape-font-specification:Sans"
       d="m 30.65625,-146.96875 a 0.92207168,0.92207168 0 0 0 -0.75,0.71875 0.92207168,0.92207168 0 0 0 -0.03125,0.1875 L 29.03125,-143 c -0.342139,0.0642 -0.696264,0.12912 -1.03125,0.21875 -0.402584,0.10795 -0.773892,0.26474 -1.15625,0.40625 L 24.25,-144.6875 a 0.92207168,0.92207168 0 0 0 -1.0625,-0.125 c -1.06424,0.60246 -2.049858,1.3227 -2.9375,2.125 a 0.92207168,0.92207168 0 0 0 -0.21875,1.0625 L 21.5,-138.5 c -0.476367,0.57508 -0.909157,1.1928 -1.28125,1.84375 l -3.5,-0.125 a 0.92207168,0.92207168 0 0 0 -0.90625,0.625 c -0.422038,1.12614 -0.705934,2.29568 -0.875,3.5 a 0.92207168,0.92207168 0 0 0 0.53125,0.96875 l 3.09375,1.4375 c 0.0093,0.73814 0.0784,1.47864 0.21875,2.21875 l -2.75,2.1875 a 0.92207168,0.92207168 0 0 0 -0.3125,1.03125 c 0.412018,1.16289 0.965613,2.21531 1.59375,3.21875 a 0.92207168,0.92207168 0 0 0 1,0.40625 l 3.3125,-0.875 c 0.484377,0.56202 1.027873,1.06669 1.59375,1.53125 L 22.5,-117.0625 a 0.92207168,0.92207168 0 0 0 0.4375,0.96875 c 1.037104,0.60993 2.156211,1.12459 3.3125,1.5 a 0.92207168,0.92207168 0 0 0 1.03125,-0.34375 L 29.25,-117.75 c 0.737961,0.12325 1.489275,0.16403 2.25,0.15625 l 1.625,3.09375 a 0.92207168,0.92207168 0 0 0 0.96875,0.46875 c 0.509589,-0.0869 1.014289,-0.17387 1.53125,-0.3125 0.667205,-0.1788 1.313979,-0.40388 1.9375,-0.65625 a 0.92207168,0.92207168 0 0 0 0.59375,-0.9375 l -0.34375,-3.90625 a 0.92517946,0.92517946 0 1 0 -1.84375,0.15625 L 36.25,-116.5 c -0.363809,0.12888 -0.717455,0.27416 -1.09375,0.375 -0.238356,0.0639 -0.481653,0.10581 -0.71875,0.15625 l -1.5625,-2.9375 A 0.92207168,0.92207168 0 0 0 32,-119.375 c -1.024812,0.0612 -2.026772,-0.0354 -3,-0.25 a 0.92207168,0.92207168 0 0 0 -0.96875,0.375 l -1.84375,2.625 c -0.590148,-0.2239 -1.160826,-0.48376 -1.71875,-0.78125 L 25.125,-120.625 a 0.92207168,0.92207168 0 0 0 -0.34375,-0.90625 c -0.810897,-0.6018 -1.536553,-1.32167 -2.15625,-2.125 a 0.92207168,0.92207168 0 0 0 -0.96875,-0.3125 l -3.0625,0.8125 c -0.314204,-0.55155 -0.601128,-1.12182 -0.84375,-1.71875 l 2.5625,-2.03125 a 0.92207168,0.92207168 0 0 0 0.3125,-0.9375 c -0.241659,-1.0172 -0.353726,-2.01745 -0.3125,-3 a 0.92207168,0.92207168 0 0 0 -0.53125,-0.84375 l -2.875,-1.375 c 0.117463,-0.62689 0.304084,-1.24193 0.5,-1.84375 l 3.25,0.0937 a 0.92207168,0.92207168 0 0 0 0.84375,-0.5 c 0.450415,-0.89579 1.032195,-1.7466 1.71875,-2.5 a 0.92207168,0.92207168 0 0 0 0.15625,-1 l -1.34375,-2.875 c 0.495485,-0.40969 1.011122,-0.78016 1.5625,-1.125 L 26,-140.65625 a 0.92207168,0.92207168 0 0 0 1,0.15625 c 0.484313,-0.20742 0.968888,-0.35759 1.5,-0.5 0.470082,-0.12578 0.949216,-0.25162 1.40625,-0.3125 a 0.92207168,0.92207168 0 0 0 0.75,-0.65625 L 31.5,-145.0625 c 0.631071,0.01 1.250406,0.034 1.875,0.125 l 0.46875,3.25 a 0.92207168,0.92207168 0 0 0 0.65625,0.75 c 0.965388,0.28953 1.893694,0.70735 2.75,1.25 a 0.92207168,0.92207168 0 0 0 1.03125,0 l 2.59375,-1.84375 c 0.489383,0.41469 0.943811,0.86937 1.375,1.34375 l -1.6875,2.75 a 0.92207168,0.92207168 0 0 0 0,1 c 0.545051,0.82773 0.997531,1.73067 1.3125,2.71875 a 0.92207168,0.92207168 0 0 0 0.78125,0.65625 l 3.15625,0.25 c 0.106361,0.63726 0.196177,1.27443 0.21875,1.90625 l -3.09375,1.03125 a 0.92207168,0.92207168 0 0 0 -0.625,0.78125 c -0.118708,1.01248 -0.398612,2.01103 -0.78125,2.9375 a 0.92207168,0.92207168 0 0 0 0.21875,1 l 2.78125,2.78125 a 0.92807765,0.92807765 0 1 0 1.3125,-1.3125 l -2.4375,-2.40625 c 0.251373,-0.70741 0.436605,-1.44044 0.5625,-2.1875 l 3.3125,-1.09375 a 0.92207168,0.92207168 0 0 0 0.65625,-0.84375 c 0.0106,-1.18944 -0.11689,-2.41964 -0.375,-3.625 A 0.92207168,0.92207168 0 0 0 46.75,-134.5625 l -3.40625,-0.3125 c -0.266739,-0.7082 -0.593703,-1.36523 -0.96875,-2 l 1.84375,-3 a 0.92207168,0.92207168 0 0 0 -0.0625,-1.0625 c -0.778515,-0.94182 -1.680084,-1.76498 -2.625,-2.5 a 0.92207168,0.92207168 0 0 0 -1.09375,-0.0312 L 37.625,-141.5 c -0.637888,-0.36068 -1.304848,-0.68772 -2,-0.9375 l -0.5,-3.46875 a 0.92207168,0.92207168 0 0 0 -0.75,-0.78125 c -1.164215,-0.21598 -2.390537,-0.32648 -3.625,-0.28125 a 0.92207168,0.92207168 0 0 0 -0.09375,0 z m 1.59375,10.6875 c -0.79352,-0.11164 -1.617779,-0.0947 -2.4375,0.125 -3.278907,0.8785 -5.222191,4.28409 -4.34375,7.5625 0.878441,3.27853 4.252428,5.25363 7.53125,4.375 A 0.92207168,0.92207168 0 1 0 32.53125,-126 c -2.313578,0.61997 -4.661491,-0.74943 -5.28125,-3.0625 -0.619759,-2.31299 0.748807,-4.6926 3.0625,-5.3125 2.313717,-0.61999 4.661485,0.74932 5.28125,3.0625 0.299823,1.11913 0.139049,2.24454 -0.375,3.1875 a 0.93031098,0.93031098 0 1 0 1.625,0.90625 c 0.730951,-1.34084 0.956227,-2.97623 0.53125,-4.5625 -0.658826,-2.45897 -2.744439,-4.16507 -5.125,-4.5 z"
       id="path14495"
       inkscape:connector-curvature="0" />
  </g>
</svg>
