<?xml version="1.0" encoding="UTF-8" standalone="no"?>
<svg
   xmlns:dc="http://purl.org/dc/elements/1.1/"
   xmlns:cc="http://creativecommons.org/ns#"
   xmlns:rdf="http://www.w3.org/1999/02/22-rdf-syntax-ns#"
   xmlns:svg="http://www.w3.org/2000/svg"
   xmlns="http://www.w3.org/2000/svg"
   xmlns:sodipodi="http://sodipodi.sourceforge.net/DTD/sodipodi-0.dtd"
   xmlns:inkscape="http://www.inkscape.org/namespaces/inkscape"
   version="1.1"
   id="Layer_1"
   x="0px"
   y="0px"
   width="32px"
   height="32px"
   viewBox="0 0 32 32"
   enable-background="new 0 0 32 32"
   xml:space="preserve"
   inkscape:version="0.48.2 r9819"
   sodipodi:docname="refresh_cloud.svg"><metadata
   id="metadata4372"><rdf:RDF><cc:Work
       rdf:about=""><dc:format>image/svg+xml</dc:format><dc:type
         rdf:resource="http://purl.org/dc/dcmitype/StillImage" /></cc:Work></rdf:RDF></metadata><defs
   id="defs4370" /><sodipodi:namedview
   pagecolor="#ffffff"
   bordercolor="#666666"
   borderopacity="1"
   objecttolerance="10"
   gridtolerance="10"
   guidetolerance="10"
   inkscape:pageopacity="0"
   inkscape:pageshadow="2"
   inkscape:window-width="1920"
   inkscape:window-height="1152"
   id="namedview4368"
   showgrid="false"
   inkscape:zoom="7.375"
   inkscape:cx="-8"
   inkscape:cy="16"
   inkscape:window-x="0"
   inkscape:window-y="22"
   inkscape:window-maximized="1"
   inkscape:current-layer="Layer_1" />
<path
   id="acw"
   d="M19.785,4.352l1.695,8.56l1.875-1.642c2.311,3.59,1.719,8.414-1.604,11.316c-2.229,1.96-5.187,2.57-7.875,1.908  l-0.84,3.396c3.75,0.93,7.896,0.062,11.021-2.688c4.771-4.175,5.521-11.219,1.938-16.279l2.021-1.775L19.785,4.352z M8.664,20.734  c-2.312-3.59-1.721-8.417,1.582-11.317c2.239-1.959,5.186-2.572,7.875-1.909l0.842-3.398C15.211,3.18,11.07,4.043,7.941,6.783  c-4.765,4.174-5.519,11.222-1.939,16.282l-2.026,1.771l8.26,2.812l-1.693-8.562L8.664,20.734z"
   style="fill:#ecf0f1;fill-opacity:1" />
</svg>